<svg clip-rule="evenodd" fill-rule="evenodd" stroke-linejoin="round" stroke-miterlimit="2" viewBox="0 0 256 256" xmlns="http://www.w3.org/2000/svg"><path d="m0 0h256v256h-256z" fill="none"/><circle cx="128" cy="128" fill="#1d3558" r="128"/><path d="m81.978 148.127c1.449.822 3.257.648 4.522-.435 1.265-1.084 1.716-2.844 1.127-4.401-1.25-3.398-2.447-7.038-3.508-10.917-.988-3.613-1.861-7.426-2.561-11.443-.049-.288-.093-.589-.141-.881-3.74-22.417-2.413-54.041 17.645-91.097.774-1.423.608-3.174-.421-4.426s-2.715-1.754-4.261-1.271c-30.003 9.628-54.402 31.761-67.022 60.286-.481 1.099-.442 2.357.108 3.423 14.16 27.392 32.574 48.062 54.512 61.162zm5.529-49.857c.015 1.661 1.066 3.136 2.632 3.691s3.312.072 4.37-1.209c2.35-2.795 4.944-5.666 7.821-8.539 2.726-2.722 5.704-5.444 8.953-8.114.16-.131.331-.263.493-.394 17.655-14.346 45.887-28.872 88.175-29.667 1.621-.027 3.064-1.036 3.646-2.549.582-1.514.187-3.23-.999-4.336-19.61-18.095-45.813-29.153-74.599-29.153-4.074 0-8.088.247-12.044.686-1.193.135-2.261.8-2.908 1.811-16.57 25.968-25.207 52.243-25.54 77.773zm34.824 79.64c1.437-.841 2.194-2.492 1.891-4.129-.302-1.638-1.598-2.91-3.24-3.183-3.466-.607-7.104-1.37-10.872-2.356-3.725-.974-7.572-2.157-11.516-3.608-.195-.071-.395-.152-.589-.226-21.314-7.969-48.137-24.979-70.223-61.069-.843-1.385-2.442-2.119-4.042-1.856-1.599.262-2.88 1.469-3.236 3.05-1.636 7.563-2.504 15.414-2.504 23.468 0 24.223 7.841 46.611 21.108 64.783.71.963 1.814 1.556 3.009 1.615 30.785 1.481 57.888-4.084 80.214-16.489zm51.798-69.794c-1.444-.83-3.253-.665-4.524.411-1.27 1.077-1.73 2.834-1.149 4.395 1.195 3.305 2.341 6.837 3.359 10.596 1.006 3.715 1.888 7.651 2.588 11.795.034.204.063.417.097.623 3.677 22.452 2.249 54.173-18.081 91.265-.782 1.42-.624 3.172.398 4.429 1.023 1.257 2.705 1.769 4.254 1.293 30.071-9.476 54.571-31.5 67.334-59.949.487-1.096.454-2.354-.091-3.423-14.017-27.459-32.32-48.223-54.185-61.435zm-5.792 49.822c-.006-1.665-1.056-3.148-2.625-3.708-1.568-.559-3.319-.076-4.379 1.21-2.259 2.691-4.739 5.454-7.481 8.219-2.71 2.735-5.672 5.47-8.905 8.155-.161.133-.329.266-.491.399-18.222 14.965-47.803 30.194-92.697 30.194 0 0 0 0-.001 0-.819 0-1.558.491-1.876 1.246-.317.755-.15 1.627.423 2.212 19.905 19.851 47.362 32.135 77.694 32.135 3.879 0 7.703-.224 11.477-.623 1.194-.128 2.266-.788 2.918-1.796 16.704-25.882 25.478-52.116 25.943-77.643zm48.908-94.256c-.704-.967-1.806-1.565-3-1.631-30.78-1.642-57.919 3.78-80.313 16.068-1.442.834-2.207 2.482-1.912 4.121.294 1.639 1.583 2.918 3.225 3.198 3.456.623 7.083 1.401 10.841 2.405 3.722.993 7.574 2.205 11.512 3.678.194.073.392.154.587.228 21.27 8.081 48 25.227 69.897 61.426.836 1.389 2.43 2.131 4.031 1.878 1.6-.254 2.887-1.454 3.252-3.032 1.719-7.733 2.635-15.768 2.635-24.02 0-24.014-7.696-46.23-20.755-64.319z" fill="#07d6a0" fill-rule="nonzero"/><path d="m81.978 148.127c-21.938-13.1-40.352-33.77-54.512-61.162-.55-1.066-.589-2.324-.108-3.423 12.62-28.525 37.019-50.658 67.022-60.286 1.546-.483 3.232.019 4.261 1.271s1.195 3.003.421 4.426c-20.058 37.056-21.385 68.68-17.645 91.097.048.292.092.593.141.881.7 4.017 1.573 7.83 2.561 11.443 1.061 3.879 2.258 7.519 3.508 10.917.589 1.557.138 3.317-1.127 4.401-1.265 1.083-3.073 1.257-4.522.435zm-46.505-63.113c11.132 21.025 24.903 37.813 41.029 49.833-.033-.121-.066-.242-.1-.363-1.051-3.845-1.98-7.904-2.725-12.18l-.003-.015c-.052-.304-.098-.621-.148-.923-3.632-21.769-2.85-51.782 13.772-86.898-22.853 9.957-41.352 28.023-51.825 50.546zm52.034 13.256c.333-25.53 8.97-51.805 25.54-77.773.647-1.011 1.715-1.676 2.908-1.811 3.956-.439 7.97-.686 12.044-.686 28.786 0 54.989 11.058 74.599 29.153 1.186 1.106 1.581 2.822.999 4.336-.582 1.513-2.025 2.522-3.646 2.549-42.288.795-70.52 15.321-88.175 29.667-.162.131-.333.263-.493.394-3.249 2.67-6.227 5.392-8.953 8.114-2.877 2.873-5.471 5.744-7.821 8.539-1.058 1.281-2.804 1.764-4.37 1.209s-2.617-2.03-2.632-3.691zm8.73-11.276c.146-.148.293-.295.44-.442 2.901-2.896 6.07-5.793 9.527-8.634.174-.142.359-.285.535-.428 17.152-13.936 43.719-28.138 82.627-30.976-17.078-12.877-38.33-20.514-61.367-20.514-3.128 0-6.216.158-9.243.44-12.612 20.198-20.224 40.552-22.519 60.554zm121.008-23.312c13.059 18.089 20.755 40.305 20.755 64.319 0 8.252-.916 16.287-2.635 24.02-.365 1.578-1.652 2.778-3.252 3.032-1.601.253-3.195-.489-4.031-1.878-21.897-36.199-48.627-53.345-69.897-61.426-.195-.074-.393-.155-.587-.228-3.938-1.473-7.79-2.685-11.512-3.678-3.758-1.004-7.385-1.782-10.841-2.405-1.642-.28-2.931-1.559-3.225-3.198-.295-1.639.47-3.287 1.912-4.121 22.394-12.288 49.533-17.71 80.313-16.068 1.194.066 2.296.664 3 1.631zm-69.105 16.429.01.002c3.96 1.057 8.059 2.347 12.25 3.915l.018.007c.196.073.396.155.593.23l.015.006c20.661 7.849 46.276 23.712 68.246 55.955.48-4.008.728-8.087.728-12.225 0-21.571-6.694-41.577-18.121-58.055-23.805-1.037-45.282 2.36-63.739 10.165zm-25.809 97.799c-22.326 12.405-49.429 17.97-80.214 16.489-1.195-.059-2.299-.652-3.009-1.615-13.267-18.172-21.108-40.56-21.108-64.783 0-8.054.868-15.905 2.504-23.468.356-1.581 1.637-2.788 3.236-3.05 1.6-.263 3.199.471 4.042 1.856 22.086 36.09 48.909 53.1 70.223 61.069.194.074.394.155.589.226 3.944 1.451 7.791 2.634 11.516 3.608 3.768.986 7.406 1.749 10.872 2.356 1.642.273 2.938 1.545 3.24 3.183.303 1.637-.454 3.288-1.891 4.129zm-95.668-61.61c-.437 3.84-.663 7.744-.663 11.701 0 21.775 6.832 41.95 18.44 58.491 23.763.91 45.182-2.585 63.661-10.506l-.015-.004c-3.96-1.035-8.05-2.294-12.244-3.836-.222-.081-.45-.172-.655-.25-20.699-7.743-46.391-23.474-68.524-55.596zm147.466-8.184c21.865 13.212 40.168 33.976 54.185 61.435.545 1.069.578 2.327.091 3.423-12.763 28.449-37.263 50.473-67.334 59.949-1.549.476-3.231-.036-4.254-1.293-1.022-1.257-1.18-3.009-.398-4.429 20.33-37.092 21.758-68.813 18.081-91.265-.034-.206-.063-.419-.097-.623-.7-4.144-1.582-8.08-2.588-11.795-1.018-3.759-2.164-7.291-3.359-10.596-.581-1.561-.121-3.318 1.149-4.395 1.271-1.076 3.08-1.241 4.524-.411zm-5.917 113.633c22.916-9.844 41.499-27.826 52.085-50.288-11.021-21.077-24.702-37.933-40.761-50.036l.001.002c1.071 3.954 2.01 8.143 2.755 12.554l.002.017c.035.207.064.423.099.632l.002.013c3.572 21.811 2.694 51.928-14.183 87.106zm.125-63.811c-.465 25.527-9.239 51.761-25.943 77.643-.652 1.008-1.724 1.668-2.918 1.796-3.774.399-7.598.623-11.477.623-30.332 0-57.789-12.284-77.694-32.135-.573-.585-.74-1.457-.423-2.212.318-.755 1.057-1.246 1.877-1.246 44.894 0 74.475-15.229 92.697-30.194.162-.133.33-.266.491-.399 3.233-2.685 6.195-5.42 8.905-8.155 2.742-2.765 5.222-5.528 7.481-8.219 1.06-1.286 2.811-1.769 4.379-1.21 1.569.56 2.619 2.043 2.625 3.708zm-101.246 51.881c16.999 12.673 38.075 20.181 60.908 20.181 2.948 0 5.861-.141 8.717-.392 12.69-20.091 20.402-40.367 22.818-60.317-2.884 2.91-6.036 5.821-9.476 8.678-.007.005-.013.01-.019.015-.17.14-.346.281-.517.42-17.074 14.019-43.555 28.372-82.431 31.415z" fill="#2a9d8f"/></svg>